<?xml version="1.0" standalone="no"?>
<!DOCTYPE svg PUBLIC "-//W3C//DTD SVG 20010904//EN"
 "http://www.w3.org/TR/2001/REC-SVG-20010904/DTD/svg10.dtd">
<svg version="1.0" xmlns="http://www.w3.org/2000/svg"
 width="250.000000pt" height="250.000000pt" viewBox="0 0 250.000000 250.000000"
 preserveAspectRatio="xMidYMid meet">
<metadata>
Created by potrace 1.11, written by Peter Selinger 2001-2013
</metadata>
<g transform="translate(0.000000,250.000000) scale(0.100000,-0.100000)"
fill="#000000" stroke="none">
<path d="M1207 2494 c-1 -1 -33 -4 -72 -7 -38 -4 -81 -9 -95 -12 -14 -2 -36
-7 -49 -10 -25 -5 -85 -22 -111 -32 -8 -3 -23 -8 -33 -9 -29 -6 -183 -82 -242
-119 -186 -119 -360 -313 -442 -491 -13 -29 -29 -56 -34 -59 -5 -4 -9 -16 -9
-29 0 -12 -4 -26 -8 -32 -19 -20 -63 -197 -77 -304 -15 -114 -3 -317 23 -413
6 -20 8 -37 5 -37 -3 0 0 -7 7 -15 7 -8 10 -15 7 -15 -5 0 12 -58 30 -100 3
-8 7 -20 8 -25 11 -49 121 -238 190 -325 47 -60 187 -189 257 -237 82 -57 210
-123 273 -142 22 -7 49 -16 60 -21 11 -5 49 -16 85 -24 180 -43 401 -40 575 6
22 5 47 12 55 14 30 7 98 33 166 64 166 76 332 210 450 362 97 125 188 309
220 443 33 140 38 194 37 340 -1 119 -8 188 -24 250 -6 22 -13 50 -15 62 -9
49 -58 172 -102 255 -79 151 -203 299 -342 409 -63 50 -217 140 -265 156 -5 1
-49 16 -97 33 -90 31 -143 44 -238 55 -48 6 -189 12 -193 9z"/>
</g>
</svg>
